<?xml version="1.0" encoding="utf-8"?>
<!-- Generator: Adobe Illustrator 16.0.0, SVG Export Plug-In . SVG Version: 6.00 Build 0)  -->
<!DOCTYPE svg PUBLIC "-//W3C//DTD SVG 1.1//EN" "http://www.w3.org/Graphics/SVG/1.1/DTD/svg11.dtd">
<svg version="1.1" id="圖層_1" xmlns="http://www.w3.org/2000/svg" xmlns:xlink="http://www.w3.org/1999/xlink" x="0px" y="0px"
	 width="799.978px" height="120px" viewBox="0 0 799.978 120" enable-background="new 0 0 799.978 120" xml:space="preserve">
<g>
	<g>
		<g>
			<path d="M305.866,2.074c3.411,0,6.319,0.439,8.731,1.313c2.414,0.875,4.493,2.211,6.236,4.002
				c1.744,1.795,3.241,3.982,4.486,6.563c1.252,2.584,2.407,5.58,3.494,8.991h1.375V0.237h-31.239v1.838H305.866z"/>
			<path d="M285.167,44.473h10.101c2.993,0,5.431,0.547,7.295,1.644c1.874,1.091,3.369,2.562,4.488,4.394
				c1.125,1.838,1.999,3.941,2.622,6.303c0.624,2.363,1.226,4.811,1.81,7.352h1.366V23.339h-1.366
				c-0.917,3.936-1.856,7.153-2.811,9.647c-0.954,2.495-2.117,4.465-3.491,5.906c-1.37,1.441-3.015,2.434-4.923,2.957
				c-1.913,0.525-4.24,0.785-6.983,0.785h-8.107V0.237h-26.311v1.838h13.838V91.86h-13.838v1.838h26.311V44.473z"/>
			<path d="M334.927,64.949h-1.37c-0.25,2.017-0.836,4.549-1.75,7.611c-0.919,3.07-2.332,6.019-4.238,8.863
				c-1.916,2.844-4.384,5.295-7.422,7.351c-3.033,2.056-6.839,3.085-11.407,3.085h-9.79v1.838h35.978V64.949z"/>
		</g>
		<g>
			<path d="M220.752,2.074c3.409,0,6.319,0.439,8.727,1.313c2.412,0.875,4.495,2.211,6.241,4.002
				c1.741,1.795,3.241,3.982,4.481,6.563c1.254,2.584,2.415,5.58,3.496,8.991h1.373V0.237h-31.236v1.838H220.752z"/>
			<path d="M200.049,44.473h10.101c2.996,0,5.434,0.547,7.295,1.644c1.875,1.091,3.369,2.562,4.493,4.394
				c1.125,1.838,1.999,3.941,2.622,6.303c0.624,2.363,1.224,4.811,1.807,7.352h1.368V23.339h-1.368
				c-0.914,3.936-1.854,7.153-2.809,9.647c-0.959,2.495-2.122,4.465-3.492,5.906s-3.014,2.434-4.923,2.957
				c-1.918,0.525-4.243,0.785-6.985,0.785h-8.11V0.237h-26.313v1.838h13.843V91.86h-13.843v1.838h26.313V44.473z"/>
			<path d="M249.813,64.949h-1.373c-0.253,2.017-0.836,4.549-1.75,7.611c-0.917,3.07-2.329,6.019-4.238,8.863
				c-1.916,2.844-4.384,5.295-7.422,7.351c-3.033,2.056-6.836,3.085-11.412,3.085h-9.785v1.838h35.98V64.949z"/>
		</g>
		<g>
			<path d="M132.09,91.893c-3.258,0-6.147-0.467-8.67-1.412c-2.523-0.94-4.644-2.504-6.35-4.688
				c-1.715-2.188-2.996-5.06-3.848-8.617c-0.857-3.553-1.283-7.909-1.283-13.049V2.035h13.555V0.237H86.172v1.799h13.553v60.811
				c0,10.451,2.589,18.209,7.755,23.264c5.168,5.057,12.638,7.588,22.411,7.588c1.592,0,3.106-0.057,4.547-0.174v-1.701
				C133.668,91.865,132.894,91.893,132.09,91.893z"/>
			<polygon points="144.794,0.237 144.794,2.035 158.35,2.035 158.35,41.76 160.183,41.76 160.183,2.035 173.735,2.035 
				173.735,0.237 			"/>
		</g>
		<g>
			<polygon points="357.807,91.86 343.969,91.86 343.969,93.698 373.522,93.698 373.522,91.86 359.684,91.86 359.684,42.635 
				357.807,42.635 			"/>
			<polygon points="428.767,2.074 428.767,0.237 399.214,0.237 399.214,2.074 413.052,2.074 413.052,42.635 414.925,42.635 
				414.925,2.074 			"/>
			<polygon points="370.659,0.237 343.969,0.237 343.969,2.074 356.721,2.074 412.431,95.535 414.925,95.535 414.925,75.414 			"/>
		</g>
		<g>
			<path d="M27.934,3.057c-5.157,2.494-9.789,5.93-13.904,10.305C9.917,17.737,6.548,22.9,3.926,28.848
				C1.309,34.801,0,41.279,0,48.281c0,6.298,1.08,12.401,3.241,18.313c2.161,5.905,5.178,11.112,9.043,15.62
				c3.869,4.506,8.457,8.116,13.781,10.833c3.109,1.583,6.376,2.688,9.796,3.35c0.005-0.628,0.036-1.243,0.087-1.843
				c-2.268-0.482-4.316-1.205-6.146-2.168c-3.659-1.924-6.647-4.857-8.977-8.793c-2.33-3.94-3.993-8.84-4.984-14.703
				c-1.002-5.863-1.5-12.737-1.5-20.608c0-6.043,0.376-11.882,1.122-17.528c0.747-5.646,2.183-10.673,4.302-15.096
				c2.119-4.417,5.072-7.941,8.854-10.568c2.228-1.545,4.864-2.622,7.888-3.26V0.071C33.648,0.69,30.792,1.672,27.934,3.057z"/>
			<path d="M83.12,28.848c-2.457-5.948-5.719-11.111-9.792-15.486c-4.075-4.375-8.71-7.811-13.907-10.305
				C56.426,1.615,53.381,0.61,50.289,0v1.828c3.021,0.638,5.66,1.715,7.888,3.26c3.782,2.627,6.735,6.151,8.856,10.568
				c2.119,4.423,3.553,9.449,4.299,15.096s1.122,11.485,1.122,17.528c0,7.871-0.499,14.745-1.496,20.608
				c-0.161,0.945-0.347,1.857-0.543,2.754c-0.137,0.639-0.284,1.262-0.439,1.867c-0.99,3.864-2.322,7.229-4.006,10.082
				c-2.327,3.936-5.344,6.869-9.041,8.793c-1.996,1.039-4.236,1.785-6.702,2.268c-0.019,0.596-0.028,1.209-0.031,1.838
				c3.56-0.662,6.967-1.853,10.227-3.582c5.277-2.797,9.87-6.473,13.779-11.021c2.128-2.486,4.004-5.17,5.641-8.042
				c0.352-0.614,0.688-1.237,1.018-1.87c0.95-1.829,1.81-3.732,2.568-5.713c2.247-5.863,3.369-11.854,3.369-17.981
				C86.798,41.279,85.567,34.801,83.12,28.848z"/>
			<path d="M55.372,113.821c-3.449-3.804-5.176-9.563-5.176-17.264c0-0.024,0-0.043,0-0.066c0.002-0.629,0.012-1.242,0.031-1.838
				c-2.107,0.406-4.379,0.623-6.832,0.623c-2.698,0-5.183-0.24-7.446-0.723c-0.052,0.6-0.083,1.215-0.087,1.843
				c0,0.052-0.004,0.108-0.004,0.161c0,3.939,0.952,7.44,2.865,10.502c1.916,3.066,4.451,5.646,7.607,7.744
				c3.161,2.102,6.841,3.723,11.039,4.856c0.456,0.128,0.919,0.231,1.382,0.341c0.049-1.072,0.156-2.127,0.309-3.161
				C57.697,116.022,56.464,115.02,55.372,113.821z"/>
		</g>
	</g>
	<g>
		<g>
			<path d="M765.157,16.762c-1.668-3.061-3.975-5.688-6.922-7.875c-2.953-2.188-6.445-3.875-10.48-5.056
				c-4.029-1.181-8.414-1.771-13.152-1.771c-1.168,0-2.307,0.023-3.43,0.065c-1.125,0.048-2.268,0.066-3.43,0.066
				c-1.168,0.09-2.33,0.151-3.492,0.193c-1.168,0.048-2.33,0.066-3.496,0.066h-23.443v1.838h13.848V94.08h-13.848v1.838h40.154
				V94.08h-13.838V70.594V50.766v-1.843V36.692V4.289c0.66-0.084,1.639-0.17,2.928-0.26c1.291-0.09,2.723-0.132,4.305-0.132
				c3.988,0,7.418,0.354,10.285,1.049c2.873,0.699,5.203,1.951,6.988,3.741c1.785,1.796,3.094,4.187,3.926,7.158
				c0.832,2.977,1.248,6.695,1.248,11.154c0,7.701-1.73,13.456-5.174,17.264c-2.717,2.991-6.279,4.791-10.668,5.43v1.928
				c2.971-0.251,5.867-0.757,8.67-1.518c4.195-1.129,7.881-2.754,11.041-4.856c3.156-2.093,5.688-4.683,7.605-7.743
				c1.91-3.063,2.863-6.563,2.863-10.504C767.646,23.24,766.819,19.828,765.157,16.762z"/>
			<g>
				<path d="M693.12,30.115c-2.381-5.788-5.557-10.806-9.516-15.062c-3.963-4.258-8.471-7.598-13.525-10.026
					c-2.9-1.39-5.854-2.372-8.85-2.967v1.781c2.924,0.618,5.48,1.667,7.641,3.165c3.68,2.557,6.547,5.981,8.607,10.276
					c2.064,4.3,3.459,9.194,4.191,14.685c0.723,5.484,1.086,11.164,1.086,17.041c0,7.654-0.482,14.339-1.455,20.037
					c-0.969,5.707-2.59,10.47-4.852,14.297c-2.264,3.836-5.193,6.686-8.793,8.556c-1.914,0.997-4.064,1.725-6.426,2.188v1.781
					c3.416-0.647,6.695-1.8,9.822-3.458c5.137-2.722,9.6-6.293,13.398-10.721c3.805-4.427,6.795-9.486,8.977-15.193
					c2.184-5.703,3.275-11.529,3.275-17.486C696.702,42.199,695.507,35.903,693.12,30.115z"/>
				<path d="M641.282,91.898c-3.557-1.87-6.473-4.72-8.73-8.556c-2.268-3.827-3.885-8.59-4.854-14.297
					c-0.967-5.698-1.455-12.383-1.455-20.037c0-5.877,0.365-11.557,1.092-17.041c0.729-5.49,2.127-10.385,4.186-14.685
					c2.061-4.295,4.934-7.72,8.609-10.276c2.158-1.498,4.715-2.547,7.639-3.165V2.135c-2.768,0.6-5.537,1.555-8.305,2.892
					c-5.014,2.429-9.521,5.769-13.521,10.026c-4.002,4.256-7.277,9.273-9.828,15.062c-2.541,5.788-3.818,12.085-3.818,18.894
					c0,6.123,1.055,12.063,3.152,17.803c2.102,5.75,5.037,10.81,8.793,15.193c3.76,4.385,8.23,7.891,13.402,10.531
					c3.203,1.635,6.578,2.76,10.125,3.383V94.1C645.36,93.631,643.196,92.905,641.282,91.898z"/>
			</g>
			<g>
				<path d="M493.776,2.669c2.697,1.36,5.002,3.151,6.916,5.382c1.914,2.234,3.469,4.814,4.678,7.743
					c1.199,2.935,2.055,5.972,2.551,9.118h1.494V1.162h-1.744c-0.666,1.229-1.182,1.994-1.555,2.296
					c-0.377,0.308-1.105,0.463-2.188,0.463c-1.162,0-2.301-0.265-3.426-0.794c-1.119-0.524-2.385-1.115-3.803-1.771
					c-1.053-0.486-2.258-0.94-3.615-1.355v2.353C493.317,2.461,493.55,2.556,493.776,2.669z"/>
				<path d="M475.821,93.674c-1.951-0.52-3.889-1.355-5.797-2.49c-1.914-1.139-3.74-2.754-5.486-4.856
					c-1.742-2.098-3.344-4.767-4.795-8.003c-1.459-3.236-2.643-7.215-3.555-11.939h-1.373V94.6h1.867
					c0.33-0.873,0.727-1.578,1.186-2.107c0.461-0.514,1.309-0.783,2.555-0.783c1.418,0,3.076,0.354,4.984,1.049
					c1.914,0.703,3.701,1.313,5.363,1.842c1.414,0.436,2.703,0.762,3.869,0.983c0.664,0.122,1.328,0.222,1.994,0.335v-2.041
					C476.364,93.811,476.095,93.75,475.821,93.674z"/>
				<path d="M515.712,54.569c-1.621-2.887-3.572-5.201-5.859-6.955c-2.285-1.742-4.635-3.057-7.039-3.93
					c-2.418-0.879-4.408-1.578-5.986-2.104l-15.086-4.984c-2.164-0.703-4.299-1.512-6.416-2.428
					c-2.121-0.922-4.035-2.055-5.736-3.411c-1.707-1.356-3.1-3.019-4.182-4.985c-1.076-1.975-1.617-4.355-1.617-7.152
					c0-3.501,0.686-6.388,2.057-8.665c1.371-2.272,3.096-4.11,5.174-5.514c0.762-0.511,1.563-0.949,2.367-1.351V0.879
					c-0.021,0.004-0.043,0.014-0.059,0.018c-3.369,1.404-6.256,3.332-8.662,5.779c-2.418,2.451-4.283,5.357-5.613,8.727
					c-1.328,3.368-1.994,7.02-1.994,10.955c0,6.039,1.725,10.848,5.174,14.434c3.449,3.592,8.537,6.479,15.27,8.66l14.34,4.598
					c1.738,0.52,3.596,1.266,5.543,2.23c1.951,0.963,3.76,2.206,5.428,3.736c1.658,1.536,3.029,3.393,4.111,5.58
					c1.076,2.188,1.619,4.81,1.619,7.871c0,2.103-0.33,4.398-0.996,6.889c-0.666,2.494-1.828,4.814-3.492,6.959
					c-1.662,2.146-3.902,3.917-6.727,5.315c-0.326,0.151-0.658,0.302-1.002,0.444v2.149c1.158-0.345,2.287-0.747,3.369-1.214
					c3.902-1.711,7.229-3.982,9.969-6.827c2.744-2.845,4.842-6.123,6.297-9.847c1.455-3.713,2.184-7.63,2.184-11.74
					C518.146,61.136,517.333,57.46,515.712,54.569z"/>
			</g>
			<g>
				<polygon points="612.296,4.289 612.296,2.451 572.142,2.451 572.142,4.289 585.981,4.289 585.981,28.57 585.981,47.217 
					585.981,49.055 585.981,73.6 585.981,94.08 572.142,94.08 572.142,95.918 612.296,95.918 612.296,94.08 598.454,94.08 
					598.454,4.289 				"/>
				<polygon points="558.3,4.294 558.3,2.456 518.146,2.456 518.146,4.294 531.987,4.294 531.987,28.574 531.987,47.217 
					531.987,49.055 531.987,73.6 531.987,94.08 518.146,94.08 518.146,95.918 558.3,95.918 558.3,94.08 544.456,94.08 
					544.456,4.294 				"/>
				<rect x="537.583" y="47.184" width="34.559" height="1.838"/>
			</g>
		</g>
		<g>
			<path fill="#231815" d="M798.937,18.506c-0.684,1.597-1.625,2.99-2.82,4.186c-1.189,1.191-2.584,2.127-4.182,2.82
				c-1.596,0.695-3.301,1.035-5.111,1.035c-1.814,0-3.516-0.34-5.117-1.035c-1.592-0.693-2.99-1.629-4.176-2.82
				c-1.191-1.195-2.131-2.589-2.826-4.186c-0.689-1.598-1.033-3.303-1.033-5.117c0-1.805,0.344-3.51,1.033-5.107
				c0.695-1.597,1.635-2.985,2.826-4.181c1.186-1.195,2.584-2.131,4.176-2.825c1.602-0.689,3.303-1.039,5.117-1.039
				c1.811,0,3.516,0.35,5.111,1.039c1.598,0.694,2.992,1.63,4.182,2.825c1.195,1.195,2.137,2.584,2.82,4.181
				c0.699,1.598,1.041,3.303,1.041,5.107C799.978,15.203,799.636,16.908,798.937,18.506z M776.169,17.93
				c0.625,1.412,1.455,2.641,2.504,3.686c1.045,1.053,2.273,1.875,3.682,2.465c1.402,0.601,2.92,0.894,4.539,0.894
				c1.578,0,3.063-0.293,4.471-0.894c1.408-0.59,2.631-1.412,3.68-2.465c1.049-1.045,1.885-2.273,2.51-3.686
				c0.613-1.403,0.926-2.916,0.926-4.541c0-1.611-0.313-3.127-0.926-4.535c-0.625-1.408-1.461-2.632-2.51-3.681
				s-2.271-1.876-3.68-2.471c-1.408-0.596-2.893-0.894-4.471-0.894c-1.619,0-3.137,0.298-4.539,0.894
				c-1.408,0.595-2.637,1.422-3.682,2.471c-1.049,1.049-1.879,2.272-2.504,3.681c-0.613,1.408-0.93,2.924-0.93,4.535
				C775.239,15.014,775.556,16.527,776.169,17.93z M793.046,20.684c0.426,0,0.76-0.094,1.002-0.283h0.141h0.072
				c0,0.047-0.029,0.094-0.072,0.146c-0.141,0.137-0.453,0.293-0.936,0.463c-0.473,0.166-0.973,0.25-1.496,0.25
				c-0.762,0-1.262-0.17-1.494-0.5c-0.434-0.478-0.662-1.111-0.689-1.895c-0.02-0.789-0.076-1.588-0.18-2.4
				c-0.137-1.332-0.486-2.201-1.035-2.607c-0.543-0.397-1.082-0.605-1.602-0.605h-1.791v7.148h1.928v0.713h-6.15v-0.713h2.002V6.458
				h-2.002V5.744h6.439c1.385,0,2.523,0.322,3.43,0.965c0.902,0.643,1.355,1.582,1.355,2.824c0,1.999-1.236,3.218-3.713,3.643
				c0.949,0.242,1.734,0.572,2.357,1.007c0.619,0.421,1.025,1.257,1.225,2.505c0.09,0.566,0.131,1.213,0.131,1.922
				c0,0.719,0.053,1.215,0.152,1.503C792.257,20.494,792.563,20.684,793.046,20.684z M787.183,12.53
				c0.855,0,1.508-0.185,1.965-0.566c0.453-0.379,0.682-1.045,0.682-1.999V9.1c0-1.758-0.885-2.642-2.646-2.642h-2.217v6.071
				H787.183z"/>
		</g>
	</g>
</g>
</svg>
